<svg width="17" height="17" viewBox="0 0 17 17" fill="currentColor" xmlns="http://www.w3.org/2000/svg">
<path d="M14.1667 2.125H2.83333C1.275 2.125 0 3.4 0 4.95833V12.0417C0 13.6 1.275 14.875 2.83333 14.875H14.1667C15.725 14.875 17 13.6 17 12.0417V4.95833C17 3.4 15.725 2.125 14.1667 2.125ZM15.3 6.23333L9.70417 9.9875C9.35 10.2 8.925 10.3417 8.5 10.3417C8.075 10.3417 7.65 10.2 7.29583 9.9875L1.7 6.23333C1.41667 6.02083 1.34583 5.59583 1.55833 5.24167C1.77083 4.95833 2.19583 4.8875 2.55 5.1L8.14583 8.85417C8.35833 8.99583 8.7125 8.99583 8.925 8.85417L14.5208 5.1C14.875 4.8875 15.3 4.95833 15.5125 5.3125C15.6542 5.59583 15.5833 6.02083 15.3 6.23333Z" fill="currentColor"/>
</svg>
