<svg width="32" height="32" viewBox="0 0 32 32" fill="none" xmlns="http://www.w3.org/2000/svg">
<path d="M4.67416 5.94552L11.9998 27.1084C12.0688 27.3077 12.199 27.4801 12.3718 27.6009C12.5447 27.7218 12.7513 27.7849 12.9621 27.7812C13.173 27.7775 13.3773 27.7073 13.5458 27.5805C13.7144 27.4538 13.8385 27.277 13.9005 27.0754L16.845 17.506C16.893 17.3501 16.9783 17.2083 17.0937 17.0929C17.209 16.9776 17.3508 16.8922 17.5067 16.8443L27.0762 13.8998C27.2777 13.8378 27.4545 13.7136 27.5813 13.5451C27.708 13.3766 27.7783 13.1723 27.7819 12.9614C27.7856 12.7506 27.7225 12.5439 27.6017 12.3711C27.4808 12.1983 27.3085 12.068 27.1092 11.9991L5.94625 4.67342C5.76891 4.61204 5.57788 4.60179 5.39499 4.64385C5.2121 4.68592 5.04473 4.7786 4.91203 4.9113C4.77933 5.044 4.68665 5.21136 4.64459 5.39425C4.60252 5.57714 4.61277 5.76818 4.67416 5.94552V5.94552Z" stroke="white" stroke-width="3" stroke-linecap="round" stroke-linejoin="round"/>
</svg>
