<svg width="18" height="18" viewBox="0 0 18 18" fill="none" xmlns="http://www.w3.org/2000/svg">
<path d="M14.5243 7.85693C14.5243 9.74238 13.743 11.4473 12.4797 12.6729C11.2496 13.8665 9.56523 14.6024 7.70482 14.6024C3.93242 14.6024 0.885352 11.5763 0.885352 7.85693C0.885352 4.13758 3.93242 1.11143 7.70482 1.11143C11.4772 1.11143 14.5243 4.13758 14.5243 7.85693Z" stroke="white" stroke-width="1.3"/>
<path d="M16.0939 17.0771C16.349 17.3297 16.7606 17.3277 17.0131 17.0726C17.2657 16.8175 17.2637 16.4059 17.0086 16.1533L16.0939 17.0771ZM12.154 13.1763L16.0939 17.0771L17.0086 16.1533L13.0687 12.2525L12.154 13.1763Z" fill="white"/>
</svg>
