<svg width="32" height="32" viewBox="0 0 32 32" fill="none" xmlns="http://www.w3.org/2000/svg">
<path d="M5 8.00012V24.0001C5 24.5306 5.21071 25.0393 5.58579 25.4143C5.96086 25.7894 6.46957 26.0001 7 26.0001H27C27.2652 26.0001 27.5196 25.8948 27.7071 25.7072C27.8946 25.5197 28 25.2653 28 25.0001V11.0001C28 10.7349 27.8946 10.4806 27.7071 10.293C27.5196 10.1055 27.2652 10.0001 27 10.0001H7C6.46957 10.0001 5.96086 9.78941 5.58579 9.41434C5.21071 9.03926 5 8.53056 5 8.00012ZM5 8.00012C5 7.46969 5.21071 6.96098 5.58579 6.58591C5.96086 6.21084 6.46957 6.00012 7 6.00012H24" stroke="#2B2B2B" stroke-width="3" stroke-linecap="round" stroke-linejoin="round"/>
<path d="M22.5 19.5001C23.3284 19.5001 24 18.8285 24 18.0001C24 17.1717 23.3284 16.5001 22.5 16.5001C21.6716 16.5001 21 17.1717 21 18.0001C21 18.8285 21.6716 19.5001 22.5 19.5001Z" fill="#2B2B2B"/>
</svg>
