<svg width="36" height="36" viewBox="0 0 36 36" fill="none" xmlns="http://www.w3.org/2000/svg">
<g clip-path="url(#clip0_2266_6278)">
<path d="M26.8341 1.89478H9.16569C4.62678 1.89478 0.947266 5.57429 0.947266 10.1132V27.7816C0.947266 32.3205 4.62678 36 9.16569 36H26.8341C31.373 36 35.0525 32.3205 35.0525 27.7816V10.1132C35.0525 5.57429 31.373 1.89478 26.8341 1.89478Z" fill="#AF2828"/>
<path d="M26.8341 0H9.16569C4.62678 0 0.947266 3.67951 0.947266 8.21842V25.8868C0.947266 30.4258 4.62678 34.1053 9.16569 34.1053H26.8341C31.373 34.1053 35.0525 30.4258 35.0525 25.8868V8.21842C35.0525 3.67951 31.373 0 26.8341 0Z" fill="#C93131"/>
<path d="M15.8682 22.6328V8.42224C15.8682 7.88329 16.0823 7.36642 16.4634 6.98533C16.8444 6.60423 17.3613 6.39014 17.9003 6.39014H18.0992C18.6382 6.39014 19.155 6.60423 19.5361 6.98533C19.9172 7.36642 20.1313 7.88329 20.1313 8.42224V22.6328C20.1313 23.1717 19.9172 23.6886 19.5361 24.0697C19.155 24.4508 18.6382 24.6649 18.0992 24.6649H17.9003C17.3613 24.6649 16.8444 24.4508 16.4634 24.0697C16.0823 23.6886 15.8682 23.1717 15.8682 22.6328ZM17.9003 31.0265H18.0992C18.6382 31.0265 19.155 30.8124 19.5361 30.4313C19.9172 30.0502 20.1313 29.5333 20.1313 28.9944V28.7954C20.1313 28.2565 19.9172 27.7396 19.5361 27.3585C19.155 26.9774 18.6382 26.7633 18.0992 26.7633H17.9003C17.3613 26.7633 16.8444 26.9774 16.4634 27.3585C16.0823 27.7396 15.8682 28.2565 15.8682 28.7954V28.9944C15.8682 29.5333 16.0823 30.0502 16.4634 30.4313C16.8444 30.8124 17.3613 31.0265 17.9003 31.0265Z" fill="#AF2828"/>
<path d="M15.8682 21.2116V7.0011C15.8682 6.46215 16.0823 5.94528 16.4634 5.56418C16.8444 5.18309 17.3613 4.96899 17.9003 4.96899H18.0992C18.6382 4.96899 19.155 5.18309 19.5361 5.56418C19.9172 5.94528 20.1313 6.46215 20.1313 7.0011V21.2116C20.1313 21.7506 19.9172 22.2674 19.5361 22.6485C19.155 23.0296 18.6382 23.2437 18.0992 23.2437H17.9003C17.3613 23.2437 16.8444 23.0296 16.4634 22.6485C16.0823 22.2674 15.8682 21.7506 15.8682 21.2116ZM17.9003 29.6053H18.0992C18.6382 29.6053 19.155 29.3912 19.5361 29.0101C19.9172 28.629 20.1313 28.1122 20.1313 27.5732V27.3743C20.1313 26.8353 19.9172 26.3184 19.5361 25.9373C19.155 25.5562 18.6382 25.3422 18.0992 25.3422H17.9003C17.3613 25.3422 16.8444 25.5562 16.4634 25.9373C16.0823 26.3184 15.8682 26.8353 15.8682 27.3743V27.5732C15.8682 28.1122 16.0823 28.629 16.4634 29.0101C16.8444 29.3912 17.3613 29.6053 17.9003 29.6053Z" fill="white"/>
</g>
<defs>
<clipPath id="clip0_2266_6278">
<rect width="36" height="36" fill="white"/>
</clipPath>
</defs>
</svg>
