<svg width="50" height="50" viewBox="0 0 50 50" fill="none" xmlns="http://www.w3.org/2000/svg">
<path d="M25 50C11.195 50 0 38.805 0 25C0 11.195 11.195 0 25 0C38.805 0 50 11.195 50 25C50 38.805 38.805 50 25 50Z" fill="#25D366"/>
<path fill-rule="evenodd" clip-rule="evenodd" d="M36.6949 13.3602C33.5949 10.2552 29.4649 8.54516 25.0699 8.54016C16.0149 8.54016 8.63988 15.9102 8.63988 24.9702C8.63988 27.8652 9.39488 30.6952 10.8349 33.1852L8.50488 41.7002L17.2149 39.4152C19.6149 40.7252 22.3149 41.4152 25.0649 41.4152H25.0699C34.1249 41.4152 41.4949 34.0452 41.4999 24.9852C41.5049 20.5952 39.7999 16.4652 36.6949 13.3602ZM25.0749 38.6402H25.0699C22.6199 38.6402 20.2149 37.9802 18.1199 36.7352L17.6199 36.4402L12.4499 37.7952L13.8299 32.7552L13.5049 32.2402C12.1399 30.0652 11.4149 27.5552 11.4149 24.9702C11.4199 17.4402 17.5449 11.3152 25.0799 11.3152C28.7299 11.3152 32.1549 12.7402 34.7349 15.3202C37.3149 17.9002 38.7349 21.3352 38.7299 24.9802C38.7299 32.5152 32.5999 38.6402 25.0749 38.6402ZM32.5649 28.4102C32.1549 28.2052 30.1349 27.2102 29.7599 27.0752C29.3849 26.9402 29.1099 26.8702 28.8349 27.2802C28.5599 27.6902 27.7749 28.6152 27.5349 28.8902C27.2949 29.1652 27.0549 29.2002 26.6449 28.9952C26.2349 28.7902 24.9099 28.3552 23.3449 26.9552C22.1249 25.8652 21.2999 24.5202 21.0599 24.1102C20.8199 23.7002 21.0349 23.4752 21.2399 23.2702C21.4249 23.0852 21.6499 22.7902 21.8549 22.5502C22.0599 22.3102 22.1299 22.1402 22.2649 21.8652C22.3999 21.5902 22.3349 21.3502 22.2299 21.1452C22.1249 20.9402 21.3049 18.9202 20.9649 18.0952C20.6299 17.2952 20.2949 17.4052 20.0399 17.3902C19.7999 17.3802 19.5249 17.3752 19.2549 17.3752C18.9799 17.3752 18.5349 17.4802 18.1599 17.8902C17.7849 18.3002 16.7249 19.2952 16.7249 21.3152C16.7249 23.3352 18.1949 25.2902 18.3999 25.5602C18.6049 25.8352 21.2949 29.9802 25.4149 31.7602C26.3949 32.1852 27.1599 32.4352 27.7549 32.6252C28.7399 32.9402 29.6349 32.8952 30.3399 32.7902C31.1299 32.6702 32.7699 31.7952 33.1099 30.8402C33.4499 29.8802 33.4499 29.0602 33.3499 28.8902C33.2499 28.7202 32.9749 28.6202 32.5649 28.4102Z" fill="white"/>
</svg>
