<svg width="41" height="41" viewBox="0 0 41 41" fill="none" xmlns="http://www.w3.org/2000/svg">
<rect width="41" height="41" rx="8" fill="#F2F2F2"/>
<g clip-path="url(#clip0_219_631)">
<path d="M31.0331 27.6462L28.5913 14.0226C28.493 13.4742 28.0158 13.0749 27.4585 13.0749H23.3975C24.1589 12.3249 24.6321 11.283 24.6321 10.1323C24.6321 7.85374 22.7784 6 20.4998 6C18.2212 6 16.3673 7.85374 16.3673 10.1323C16.3673 11.283 16.8405 12.3249 17.602 13.0749H13.5409C12.9836 13.0749 12.5065 13.4742 12.4081 14.0226L9.96629 27.6462C9.90622 27.9816 9.99774 28.3263 10.2165 28.5876C10.4351 28.8489 10.7583 28.9999 11.099 28.9999H29.9004C30.2411 28.9999 30.5643 28.8489 30.783 28.5876C31.0016 28.3263 31.0932 27.9816 31.0331 27.6462ZM20.4998 8.30154C21.5093 8.30154 22.3306 9.12281 22.3306 10.1323C22.3306 11.1419 21.5093 11.9632 20.4998 11.9632C19.4902 11.9632 18.6689 11.1419 18.6689 10.1323C18.6689 9.12281 19.4902 8.30154 20.4998 8.30154ZM20.199 23.8083C20.1391 23.9187 20.0234 23.9875 19.8977 23.9875H19.3549C19.2332 23.9875 19.1206 23.923 19.0591 23.818L17.7156 21.5245L16.8564 22.4016V23.4577C16.8564 23.7503 16.6192 23.9875 16.3266 23.9875C16.034 23.9875 15.7968 23.7503 15.7968 23.4577V19.2692C15.7968 18.9766 16.034 18.7393 16.3266 18.7393C16.6192 18.7393 16.8564 18.9766 16.8564 19.2692V21.0698L18.8955 18.8502C18.9604 18.7795 19.052 18.7393 19.1479 18.7393H19.6138C19.7514 18.7393 19.8757 18.8216 19.9294 18.9482C19.9831 19.0749 19.9559 19.2214 19.8603 19.3203L18.4459 20.7833L20.1851 23.4578C20.2536 23.5633 20.259 23.6977 20.199 23.8083ZM25.4191 23.1094C25.4191 23.2135 25.3716 23.3125 25.2902 23.3775C25.0787 23.5462 24.8002 23.6976 24.4545 23.8317C24.0332 23.9952 23.6065 24.0769 23.1746 24.0769C22.6256 24.0769 22.1473 23.9618 21.739 23.7315C21.331 23.5012 21.0242 23.1719 20.819 22.7434C20.6137 22.315 20.5111 21.8491 20.5111 21.3455C20.5111 20.799 20.6256 20.3132 20.8548 19.8885C21.0839 19.4636 21.4192 19.138 21.8608 18.9111C22.1971 18.737 22.6161 18.6497 23.1173 18.6497C23.7689 18.6497 24.2777 18.7864 24.6441 19.0597C24.8029 19.1781 24.9371 19.3161 25.0467 19.4737C25.1515 19.6243 25.1727 19.8177 25.1032 19.9874C25.0337 20.1572 24.883 20.2803 24.7026 20.3141L24.7014 20.3143C24.4901 20.3538 24.2759 20.2602 24.1615 20.0782C24.0883 19.9618 23.995 19.8621 23.8816 19.7792C23.6775 19.63 23.4227 19.5555 23.1173 19.5555C22.6542 19.5555 22.2861 19.7023 22.0129 19.9958C21.7397 20.2894 21.603 20.725 21.603 21.3025C21.603 21.9254 21.7414 22.3926 22.0183 22.7041C22.2951 23.0155 22.6578 23.1712 23.1066 23.1712C23.3285 23.1712 23.5511 23.1277 23.7742 23.0405C23.9973 22.9534 24.1888 22.8477 24.3488 22.7238V22.0578H23.5774C23.3332 22.0578 23.1353 21.8598 23.1353 21.6157C23.1353 21.3715 23.3333 21.1737 23.5774 21.1737H25.0764C25.2657 21.1737 25.4191 21.3272 25.4191 21.5165V23.1094Z" fill="#E53737"/>
</g>
<defs>
<clipPath id="clip0_219_631">
<rect width="23" height="23" fill="white" transform="translate(9 6)"/>
</clipPath>
</defs>
</svg>
