<svg width="41" height="41" viewBox="0 0 41 41" fill="none" xmlns="http://www.w3.org/2000/svg">
<rect width="41" height="41" rx="8" fill="white"/>
<g clip-path="url(#clip0_219_635)">
<path d="M33 18.4766C32.3543 16.6541 30.3003 15.4297 28.3789 15.4297C27.2318 15.4297 26.1525 15.8665 25.332 16.603V11.6211H26.9958C27.3113 12.5058 28.1489 13.1445 29.1406 13.1445C30.4007 13.1445 31.4258 12.1195 31.4258 10.8594C31.4258 9.59929 30.4007 8.57422 29.1406 8.57422C28.1489 8.57422 27.3113 9.21295 26.9958 10.0977H23.8086V18.4766H20.7617V11.43C21.6464 11.1145 22.2852 10.2769 22.2852 9.28516C22.2852 8.02507 21.2601 7 20 7C18.7399 7 17.7148 8.02507 17.7148 9.28516C17.7148 10.2769 18.3536 11.1145 19.2383 11.43V18.4766H16.1914V10.0977H13.0042C12.6887 9.21295 11.8511 8.57422 10.8594 8.57422C9.59929 8.57422 8.57422 9.59929 8.57422 10.8594C8.57422 12.1195 9.59929 13.1445 10.8594 13.1445C11.8511 13.1445 12.6887 12.5058 13.0042 11.6211H14.668V16.603C13.8475 15.8665 12.7682 15.4297 11.6211 15.4297C9.69968 15.4297 7.64568 16.6541 7 18.4766H11.6211V21.5234H7C7.64568 23.3459 9.69968 24.5703 11.6211 24.5703C12.7682 24.5703 13.8475 24.1335 14.668 23.397V28.3789H13.0042C12.6887 27.4942 11.8511 26.8555 10.8594 26.8555C9.59929 26.8555 8.57422 27.8805 8.57422 29.1406C8.57422 30.4007 9.59929 31.4258 10.8594 31.4258C11.8511 31.4258 12.6887 30.7871 13.0042 29.9023H16.1914V21.5234H19.2383V28.57C18.3536 28.8855 17.7148 29.7231 17.7148 30.7148C17.7148 31.9749 18.7399 33 20 33C21.2601 33 22.2852 31.9749 22.2852 30.7148C22.2852 29.7231 21.6464 28.8855 20.7617 28.57V21.5234H23.8086V29.9023H26.9958C27.3113 30.7871 28.1489 31.4258 29.1406 31.4258C30.4007 31.4258 31.4258 30.4007 31.4258 29.1406C31.4258 27.8805 30.4007 26.8555 29.1406 26.8555C28.1489 26.8555 27.3113 27.4942 26.9958 28.3789H25.332V23.397C26.1525 24.1335 27.2318 24.5703 28.3789 24.5703C30.3003 24.5703 32.3543 23.3459 33 21.5234H28.3789V18.4766H33Z" fill="#E53737"/>
</g>
<defs>
<clipPath id="clip0_219_635">
<rect width="26" height="26" fill="white" transform="translate(7 7)"/>
</clipPath>
</defs>
</svg>
