<svg width="41" height="41" viewBox="0 0 41 41" fill="none" xmlns="http://www.w3.org/2000/svg">
<g id="3225179_app_logo_media_popular_social_icon (12) 1" clip-path="url(#clip0_219_741)">
<g id="Group">
<path id="Vector" d="M20.5 41C9.1799 41 0 31.8201 0 20.5C0 9.1799 9.1799 0 20.5 0C31.8201 0 41 9.1799 41 20.5C41 31.8201 31.8201 41 20.5 41Z" fill="#25D366"/>
<g id="Group_2">
<g id="WA_Logo">
<g id="Group_3">
<path id="Vector_2" fill-rule="evenodd" clip-rule="evenodd" d="M30.0894 10.9553C27.5474 8.40923 24.1608 7.00703 20.5569 7.00293C13.1318 7.00293 7.08433 13.0463 7.08433 20.4755C7.08433 22.8494 7.70343 25.17 8.88423 27.2118L6.97363 34.1941L14.1158 32.3204C16.0838 33.3946 18.2978 33.9604 20.5528 33.9604H20.5569C27.982 33.9604 34.0254 27.917 34.0295 20.4878C34.0336 16.888 32.6355 13.5014 30.0894 10.9553ZM20.561 31.6849H20.5569C18.5479 31.6849 16.5758 31.1437 14.8579 30.1228L14.4479 29.8809L10.2085 30.992L11.3401 26.8592L11.0736 26.4369C9.95433 24.6534 9.35983 22.5952 9.35983 20.4755C9.36393 14.3009 14.3864 9.27843 20.5651 9.27843C23.5581 9.27843 26.3666 10.4469 28.4822 12.5625C30.5978 14.6781 31.7622 17.4948 31.7581 20.4837C31.7581 26.6624 26.7315 31.6849 20.561 31.6849ZM26.7028 23.2963C26.3666 23.1282 24.7102 22.3123 24.4027 22.2016C24.0952 22.0909 23.8697 22.0335 23.6442 22.3697C23.4187 22.7059 22.775 23.4644 22.5782 23.6899C22.3814 23.9154 22.1846 23.9441 21.8484 23.776C21.5122 23.6079 20.4257 23.2512 19.1424 22.1032C18.142 21.2094 17.4655 20.1065 17.2687 19.7703C17.0719 19.4341 17.2482 19.2496 17.4163 19.0815C17.568 18.9298 17.7525 18.6879 17.9206 18.4911C18.0887 18.2943 18.1461 18.1549 18.2568 17.9294C18.3675 17.7039 18.3142 17.5071 18.2281 17.339C18.142 17.1709 17.4696 15.5145 17.1908 14.838C16.9161 14.182 16.6414 14.2722 16.4323 14.2599C16.2355 14.2517 16.01 14.2476 15.7886 14.2476C15.5631 14.2476 15.1982 14.3337 14.8907 14.6699C14.5832 15.0061 13.714 15.822 13.714 17.4784C13.714 19.1348 14.9194 20.7379 15.0875 20.9593C15.2556 21.1848 17.4614 24.5837 20.8398 26.0433C21.6434 26.3918 22.2707 26.5968 22.7586 26.7526C23.5663 27.0109 24.3002 26.974 24.8783 26.8879C25.5261 26.7895 26.8709 26.072 27.1497 25.2889C27.4285 24.5017 27.4285 23.8293 27.3465 23.6899C27.2645 23.5505 27.039 23.4685 26.7028 23.2963Z" fill="white"/>
</g>
</g>
</g>
</g>
</g>
<defs>
<clipPath id="clip0_219_741">
<rect width="41" height="41" fill="white"/>
</clipPath>
</defs>
</svg>
