<svg width="683" height="228" viewBox="0 0 683 228" fill="none" xmlns="http://www.w3.org/2000/svg">
<circle cx="3.5" cy="224.5" r="3.5" fill="#ADC5E8"/>
<path d="M8 222.5L120.15 209.439C121.076 209.331 122.014 209.368 122.93 209.549L186.039 221.979C187.766 222.319 189.554 222.145 191.183 221.479L248.354 198.11C249.709 197.556 251.178 197.341 252.634 197.484L437.626 215.542C438.967 215.673 440.321 215.501 441.587 215.039L581.614 163.925C584.667 162.811 586.882 160.137 587.409 156.931L602.443 65.5089C602.932 62.5301 604.883 59.9953 607.637 58.7588L669.464 31" stroke="#C3DDF4" stroke-dasharray="6 6"/>
<path fill-rule="evenodd" clip-rule="evenodd" d="M671.294 32C671.294 32 682.588 17.5317 682.588 11.2941C682.588 5.05655 677.532 0 671.294 0C665.057 0 660 5.05655 660 11.2941C660 17.5317 671.294 32 671.294 32ZM671.294 14.1177C673.633 14.1177 675.529 12.2215 675.529 9.88239C675.529 7.5433 673.633 5.64709 671.294 5.64709C668.955 5.64709 667.059 7.5433 667.059 9.88239C667.059 12.2215 668.955 14.1177 671.294 14.1177Z" fill="#ADC5E8"/>
</svg>
