<svg width="39" height="40" viewBox="0 0 39 40" fill="none" xmlns="http://www.w3.org/2000/svg">
<path d="M35.0193 18.4194C33.8177 19.7682 32.6405 21.2212 31.819 23.2259C31.445 24.1517 30.5561 24.7525 29.5567 24.7525C28.5512 24.7525 27.6623 24.1517 27.2822 23.2198C26.3318 20.89 24.8911 19.3022 23.4933 17.7695C23.1439 17.3833 22.7944 16.997 22.4511 16.5985C22.4327 16.6047 22.4203 16.6108 22.4021 16.6169C21.041 17.0276 19.9926 18.8301 20.6241 20.2954C21.0533 21.3008 24.0635 21.1108 23.8061 23.2749C23.5915 25.0467 25.9088 25.5126 26.7304 25.4269C27.552 25.3288 28.8149 26.7757 28.1773 27.4133C27.5459 28.0509 26.3503 28.0754 26.5342 29.7185C26.5832 30.1967 28.0302 30.1354 28.0302 30.8588C28.0302 31.5884 27.2823 32.4161 27.8585 33.256C27.9812 33.4399 28.1099 33.5809 28.2448 33.6913C25.4737 36.2417 21.7767 37.8051 17.7242 37.8051C9.15948 37.8051 2.19484 30.8404 2.19484 22.2756C2.19484 19.6762 2.83863 17.2238 3.97281 15.0658C3.96667 17.8553 5.45647 20.1728 6.15536 20.8717C8.43601 23.1462 11.7406 22.4288 12.1635 24.3355C12.5927 26.2361 9.8951 26.2422 10.0729 27.6952C10.2568 29.1543 13.7698 29.5406 12.9851 30.8832C11.949 32.6673 13.684 32.796 13.1813 34.997C12.9116 36.1987 14.6465 36.4316 15.2903 35.5181C15.7808 34.8192 15.6827 33.9609 16.6697 32.9126C17.8775 31.6251 20.6793 31.4166 20.3666 29.2892C19.8333 25.7579 16.4 25.206 14.9041 24.3783C13.2058 23.4465 13.6227 21.2087 13.2548 20.142C12.7399 18.6277 10.9925 20.5651 10.0607 19.6822C8.52798 18.2353 10.3365 16.1876 11.624 16.2305C14.3399 16.3164 15.1737 18.9588 16.173 18.8668C17.1478 18.7809 17.7793 17.4199 17.951 16.6965C18.3127 15.1209 17.3379 15.8259 16.9456 15.0043C16.4183 13.907 18.7971 12.8586 19.7167 12.0493C19.8577 11.9267 19.9619 11.8102 20.0171 11.6998C20.2931 11.1604 19.9313 10.7496 19.3182 10.3756C18.0921 9.63369 15.8543 9.04519 15.7501 7.8865C15.6888 7.17525 17.0499 6.83199 18.6009 6.77068C18.8584 6.78297 19.1097 6.80748 19.3673 6.83198C19.496 6.10238 19.7044 5.38506 19.9865 4.69846C19.2446 4.60035 18.4906 4.55127 17.7242 4.55127C7.95163 4.55127 4.02917e-10 12.5029 4.02917e-10 22.2754C-6.53591e-05 32.0483 7.95163 40 17.7242 40C27.4967 40 35.4485 32.0483 35.4485 22.2757C35.4485 20.9515 35.3013 19.6579 35.0193 18.4194ZM28.7227 0.0393704C23.7193 0.512312 20.2924 5.36048 21.1656 10.3098C22.0524 15.3373 26.6878 16.8849 28.9882 22.5283C29.1956 23.0368 29.9116 23.0394 30.1188 22.5307C32.6688 16.2715 38.091 15.05 38.091 8.53689C38.0909 3.5478 33.8112 -0.44161 28.7227 0.0393704ZM29.554 13.0453C27.0641 13.0453 25.0456 11.0268 25.0456 8.53689C25.0456 6.04702 27.0641 4.02859 29.554 4.02859C32.0439 4.02859 34.0623 6.04702 34.0623 8.53689C34.0623 11.0268 32.0438 13.0453 29.554 13.0453Z" fill="url(#paint0_linear_219_528)"/>
<defs>
<linearGradient id="paint0_linear_219_528" x1="6.99271" y1="5.80646" x2="35.2269" y2="39.106" gradientUnits="userSpaceOnUse">
<stop stop-color="#2266EA"/>
<stop offset="0.385341" stop-color="#4CB9F7"/>
<stop offset="1" stop-color="#24A5ED"/>
</linearGradient>
</defs>
</svg>
