<svg width="41" height="41" viewBox="0 0 41 41" fill="none" xmlns="http://www.w3.org/2000/svg">
<g id="gift-box-with-bow_66834 1" clip-path="url(#clip0_219_610)">
<g id="Group">
<g id="Group_2">
<g id="Group_3">
<path id="Vector" d="M18.2048 22.7665C14.8281 22.7665 4.88994 22.7665 4.88994 22.7665C3.83494 22.7665 2.97168 23.6296 2.97168 24.6846V39.082C2.97168 40.137 3.83494 41.0002 4.88994 41.0002C4.88994 41.0002 15.0361 41.0002 18.4287 41.0002C18.88 41.0002 18.88 40.5154 18.88 40.5154V23.4183C18.88 23.4183 18.8799 22.7665 18.2048 22.7665Z" fill="#2384F5"/>
<path id="Vector_2" d="M36.1099 22.7665C36.1099 22.7665 26.1337 22.7665 22.8086 22.7665C21.9984 22.7665 22.1197 23.6102 22.1197 23.6102V40.531C22.1197 40.531 22.1132 40.9997 22.6005 40.9997C25.9778 40.9997 36.1096 40.9997 36.1096 40.9997C37.1646 40.9997 38.0279 40.1366 38.0279 39.0816V24.6846C38.0282 23.6296 37.1649 22.7665 36.1099 22.7665Z" fill="#2384F5"/>
</g>
<g id="Group_4">
<path id="Vector_3" d="M18.88 11.4383C18.88 11.4383 18.88 10.7883 18.2377 10.7883C14.3916 10.7883 2.72393 10.7883 2.72393 10.7883C1.66892 10.7883 0.805664 11.6516 0.805664 12.7065V18.6942C0.805664 19.7492 1.66892 20.6123 2.72393 20.6123C2.72393 20.6123 14.4438 20.6123 18.2903 20.6123C18.88 20.6123 18.88 20.1008 18.88 20.1008V11.4383Z" fill="#2384F5"/>
<path id="Vector_4" d="M38.2761 10.7883C38.2761 10.7883 26.6037 10.7883 22.7128 10.7883C22.1201 10.7883 22.1201 11.3531 22.1201 11.3531V20.1127C22.1201 20.1127 22.1201 20.6123 22.8407 20.6123C26.6994 20.6123 38.2761 20.6123 38.2761 20.6123C39.3311 20.6123 40.1943 19.7492 40.1943 18.6942V12.7065C40.1943 11.6516 39.3311 10.7883 38.2761 10.7883Z" fill="#2384F5"/>
</g>
<g id="Group_5">
<path id="Vector_5" d="M12.3553 9.3691C11.4777 9.3691 10.6761 9.2995 9.9731 9.16212C8.1876 8.8133 6.96043 8.13437 6.22141 7.08678C5.55925 6.14791 5.35661 4.99047 5.61893 3.64646C6.07844 1.29496 7.65766 0 10.0653 0C10.5749 0 11.1345 0.0588364 11.7287 0.174972C13.2403 0.470272 15.1736 1.33702 16.9006 2.49349C19.8305 4.45577 19.9754 5.67568 19.8295 6.42267C19.615 7.52029 18.5891 8.30459 16.693 8.82056C15.412 9.16911 13.831 9.3691 12.3553 9.3691ZM10.0655 3.07444C9.13304 3.07444 8.81258 3.33495 8.63663 4.23594C8.49269 4.97258 8.67423 5.22987 8.73376 5.31442C8.98308 5.668 9.63252 5.96288 10.5626 6.14442C11.0644 6.24252 11.6845 6.29437 12.3552 6.29437C13.83 6.29437 15.1293 6.07091 15.9915 5.82648C16.0542 5.80873 16.1516 5.73452 16.0472 5.67233C14.9201 4.75415 12.858 3.52809 11.1392 3.19226C10.7388 3.11427 10.3774 3.07444 10.0655 3.07444Z" fill="#2384F5"/>
</g>
<g id="Group_6">
<path id="Vector_6" d="M28.6887 9.36908C28.6887 9.36908 28.6887 9.36908 28.6884 9.36908C27.2127 9.36908 25.6318 9.16909 24.3508 8.82055C22.4547 8.30471 21.4289 7.52028 21.2143 6.42279C21.0686 5.67581 21.2132 4.45589 24.1434 2.49361C25.8701 1.33715 27.8034 0.470394 29.3153 0.175094C29.9095 0.0589584 30.4691 0.00012207 30.9782 0.00012207C33.3865 0.00012207 34.9656 1.29522 35.4246 3.64672C35.6872 4.99059 35.4847 6.14803 34.8224 7.0869C34.0834 8.13463 32.8564 8.81342 31.0705 9.16224C30.3678 9.29934 29.5662 9.36908 28.6887 9.36908ZM25.0212 5.6533C24.9213 5.7113 24.9697 5.80284 25.0215 5.81779C25.8832 6.06558 27.1962 6.2945 28.6884 6.2945C29.3593 6.2945 29.9791 6.24265 30.4811 6.14454C31.4111 5.96286 32.0608 5.66812 32.3099 5.31454C32.3698 5.22999 32.5514 4.9727 32.4071 4.23606C32.2313 3.33507 31.9107 3.07457 30.9781 3.07457C30.6663 3.07457 30.3052 3.11426 29.9045 3.19252C28.1855 3.52821 26.1483 4.73498 25.0212 5.6533Z" fill="#2384F5"/>
</g>
</g>
</g>
</g>
<defs>
<clipPath id="clip0_219_610">
<rect width="41" height="41" fill="white"/>
</clipPath>
</defs>
</svg>
