<svg width="41" height="41" viewBox="0 0 41 41" fill="none" xmlns="http://www.w3.org/2000/svg">
<g clip-path="url(#clip0_219_734)">
<path d="M20.5 41C31.8218 41 41 31.8218 41 20.5C41 9.17816 31.8218 0 20.5 0C9.17816 0 0 9.17816 0 20.5C0 31.8218 9.17816 41 20.5 41Z" fill="url(#paint0_linear_219_734)"/>
<path d="M30.4775 11.7956L26.8179 30.2536C26.8179 30.2536 26.3054 31.5348 24.8961 30.9182L16.4478 24.4399L13.3728 22.9585L8.19978 21.2208C8.19978 21.2208 7.40701 20.9405 7.32693 20.3239C7.24685 19.7073 8.22381 19.379 8.22381 19.379L28.7879 11.3151C28.7879 11.3071 30.4775 10.5624 30.4775 11.7956Z" fill="white"/>
<path d="M15.7914 30.0452C15.7914 30.0452 15.5432 30.0212 15.2389 29.0522C14.9346 28.0833 13.373 22.9583 13.373 22.9583L25.7932 15.0706C25.7932 15.0706 26.5139 14.6382 26.4818 15.0706C26.4818 15.0706 26.61 15.1507 26.2256 15.503C25.8412 15.8634 16.4721 24.2876 16.4721 24.2876" fill="#D2E4F0"/>
<path d="M19.6826 26.9223L16.3434 29.9732C16.3434 29.9732 16.0791 30.1734 15.7988 30.0453L16.4395 24.3838" fill="#B5CFE4"/>
</g>
<defs>
<linearGradient id="paint0_linear_219_734" x1="20.5" y1="0" x2="20.5" y2="40.8504" gradientUnits="userSpaceOnUse">
<stop stop-color="#41BCE7"/>
<stop offset="1" stop-color="#22A6DC"/>
</linearGradient>
<clipPath id="clip0_219_734">
<rect width="41" height="41" fill="white"/>
</clipPath>
</defs>
</svg>
